# xmcd
#
# Track frame offsets: 
#        150
#        14561
#        33944
#        50780
#        72104
#        89854
#        105442
#        119229
#        138629
#        156067
#        174158
#        191490
#
# Disc length: 2904 seconds
#
# Revision: 4
# Processed by: cddbd v1.5.2PL0 Copyright (c) Steve Scherf et al.
# Submitted via: ExactAudioCopyFreeDBPlugin 1.0
#
DISCID=aa0b560c
DTITLE=Stevie Ann - Away From Here (Special Edition)
DYEAR=2005
DGENRE=Alternative
TTITLE0=Leaving Next Time
TTITLE1=Away From Here
TTITLE2=Perfect
TTITLE3=The Poetry Man
TTITLE4=You Versus Me
TTITLE5=Johnny
TTITLE6=10 Minutes Of Sleep
TTITLE7=Name It Love
TTITLE8=Sweet Surprise
TTITLE9=Blue
TTITLE10=One Way Street
TTITLE11=Overdone
EXTD=
EXTT0=
EXTT1=
EXTT2=
EXTT3=
EXTT4=
EXTT5=
EXTT6=
EXTT7=
EXTT8=
EXTT9=
EXTT10=
EXTT11=
PLAYORDER=
